<svg width="25" height="24" viewBox="0 0 25 24" fill="none" xmlns="http://www.w3.org/2000/svg">
<g opacity="0.954">
<path fill-rule="evenodd" clip-rule="evenodd" d="M11.379 1.51053C13.7884 1.40172 15.8977 2.13621 17.6979 3.70948C18.3843 4.30342 18.9662 4.97444 19.4481 5.72707C19.5754 6.18046 19.4163 6.4933 18.9708 6.65652C18.7617 6.69733 18.5662 6.66559 18.3798 6.56584C17.6661 5.59559 16.816 4.76588 15.8341 4.07219C13.7702 2.80723 11.5881 2.56693 9.28787 3.34677C7.54222 3.96791 6.10115 5.01071 4.9692 6.47516C4.36459 6.67919 4.00091 6.47516 3.87817 5.86309C3.9009 5.69987 3.95091 5.55025 4.03728 5.4097C5.9284 3.07926 8.37413 1.78257 11.379 1.51053Z" fill="#FFD371"/>
<path fill-rule="evenodd" clip-rule="evenodd" d="M11.0153 4.5029C13.2019 4.48477 15.1112 5.18752 16.7432 6.61117C17.7388 7.56329 18.3707 8.71944 18.6298 10.0796C18.8889 11.6257 18.948 13.1853 18.8116 14.7495C18.7662 15.747 18.507 16.6855 18.0388 17.5606C17.3978 18.558 16.4795 18.9888 15.2885 18.8527C13.9292 18.5807 13.0246 17.7873 12.5836 16.4724C12.4109 15.9102 12.3245 15.339 12.3336 14.7495C12.3882 14.0105 12.4291 13.267 12.4473 12.5279C12.3518 11.9204 11.9972 11.6529 11.379 11.7345C10.4561 11.9612 9.75151 12.4826 9.26509 13.2987C8.32408 15.0896 8.27862 16.9032 9.12871 18.7394C9.87425 20.3127 11.0107 21.5232 12.5382 22.3665C12.8519 23.0103 12.6609 23.3866 11.9699 23.5C11.8608 23.4955 11.7517 23.4728 11.6517 23.432C8.81504 21.7998 7.31488 19.3424 7.15122 16.0644C7.11485 14.1692 7.78311 12.5733 9.15144 11.2811C10.0606 10.4967 11.1062 10.2066 12.2882 10.4197C12.9882 10.6509 13.4656 11.1088 13.7201 11.8025C13.902 12.5687 13.9156 13.3395 13.7656 14.1148C13.6019 15.1304 13.8156 16.0508 14.402 16.8805C14.8566 17.3475 15.4112 17.5379 16.0613 17.4472C16.5341 17.2523 16.8614 16.9122 17.0387 16.4271C17.2342 15.883 17.3569 15.3254 17.4024 14.7495C17.5569 13.3848 17.5297 12.0247 17.3114 10.669C16.975 8.70131 15.8931 7.31846 14.0611 6.52049C12.0609 5.65452 10.0925 5.71346 8.15133 6.70185C7.20577 7.30033 6.46933 8.09376 5.94654 9.08215C5.24646 10.4695 4.79187 11.9385 4.58275 13.48C4.31454 15.3208 4.33727 17.1571 4.65094 18.9888C4.6373 19.2472 4.52365 19.4512 4.30999 19.6008C4.24181 19.6326 4.01905 19.7232 3.75084 19.6552C3.57355 19.6099 3.4599 19.5192 3.4008 19.4648C3.29625 19.3152 3.23715 19.152 3.21896 18.9661C2.75528 15.8604 3.02803 12.8226 4.03724 9.85292C4.5873 8.35219 5.46012 7.07817 6.65117 6.02176C7.94676 5.06964 9.40147 4.56184 11.0153 4.5029Z" fill="#008D89"/>
<path fill-rule="evenodd" clip-rule="evenodd" d="M20.9253 10.3063C20.8071 10.3652 20.6843 10.4106 20.5616 10.4423C20.3116 10.4514 20.107 10.3607 19.9479 10.1703C19.7251 9.36326 19.4342 8.57436 19.0842 7.81266C19.016 7.29126 19.2433 6.98749 19.7661 6.90588C20.1297 6.95122 20.3707 7.14617 20.4934 7.49528C20.7753 8.1255 21.0026 8.77385 21.1753 9.44487C21.2117 9.6761 21.198 9.90279 21.1298 10.125C21.0662 10.1975 20.998 10.2564 20.9253 10.3063Z" fill="#FFD371"/>
<path fill-rule="evenodd" clip-rule="evenodd" d="M7.05117 21.8859C7.01026 21.9086 6.7375 22.0582 6.42838 21.9494C6.2329 21.8814 6.1238 21.7454 6.08288 21.6864C5.62829 20.5031 5.35553 19.2789 5.26461 18.014C5.09186 16.5132 5.12369 15.017 5.35553 13.5254C5.68738 11.8388 6.38292 10.329 7.44667 8.99148C8.2995 8.03867 9.2193 7.45744 10.2061 7.24827C11.276 7.02148 12.4246 7.23207 13.6519 7.88067C14.9657 8.76932 15.8203 9.9844 16.2204 11.5305C16.5659 12.8498 16.5522 14.1647 16.1749 15.475C15.884 15.9148 15.5158 15.9964 15.0612 15.7243C14.9066 15.5793 14.8293 15.3979 14.8339 15.1803C15.3521 13.2579 15.0293 11.4942 13.8565 9.89826C13.1382 9.07309 12.229 8.6197 11.1289 8.53809C10.3652 8.58343 9.69238 8.84639 9.10595 9.33152C7.82853 10.5919 7.03299 12.1108 6.71932 13.8881C6.38746 16.4044 6.60567 18.8663 7.37848 21.2784C7.37848 21.3419 7.37394 21.4733 7.29666 21.6184C7.21937 21.7726 7.10572 21.8542 7.05117 21.8859Z" fill="#A1C5A0"/>
<path fill-rule="evenodd" clip-rule="evenodd" d="M10.5607 13.1627C11.1108 13.0856 11.4154 13.3214 11.4699 13.8654C11.3881 14.3596 11.2881 14.8538 11.1744 15.339C10.829 15.7153 10.4562 15.747 10.0607 15.4296C9.93794 15.2846 9.8743 15.1213 9.87885 14.9309C9.92431 14.4685 10.0061 14.0151 10.1289 13.5707C10.238 13.3939 10.3834 13.2579 10.5607 13.1627Z" fill="#FFD371"/>
<path fill-rule="evenodd" clip-rule="evenodd" d="M10.4242 15.9737C10.7242 15.9329 10.9742 16.0236 11.1742 16.2457C11.3015 16.681 11.4243 17.1208 11.5379 17.5606C12.1425 19.1338 13.2745 20.0769 14.9247 20.3943C15.3565 20.5847 15.502 20.9111 15.3565 21.3691C15.2111 21.6093 14.9974 21.7454 14.7201 21.7771C12.7153 21.428 11.2788 20.3399 10.4014 18.5127C10.0923 17.8507 9.93775 17.1525 9.94684 16.4271C10.0423 16.2049 10.2014 16.0508 10.4242 15.9737Z" fill="#FFD371"/>
</g>
</svg>
