<svg width="60" height="40" viewBox="0 0 60 40" fill="none" xmlns="http://www.w3.org/2000/svg">
<path d="M39 24V16C38.9996 15.6493 38.9071 15.3048 38.7315 15.0012C38.556 14.6975 38.3037 14.4454 38 14.27L31 10.27C30.696 10.0945 30.3511 10.002 30 10.002C29.6489 10.002 29.304 10.0945 29 10.27L22 14.27C21.6963 14.4454 21.444 14.6975 21.2685 15.0012C21.0929 15.3048 21.0004 15.6493 21 16V24C21.0004 24.3507 21.0929 24.6952 21.2685 24.9988C21.444 25.3025 21.6963 25.5546 22 25.73L29 29.73C29.304 29.9055 29.6489 29.9979 30 29.9979C30.3511 29.9979 30.696 29.9055 31 29.73L38 25.73C38.3037 25.5546 38.556 25.3025 38.7315 24.9988C38.9071 24.6952 38.9996 24.3507 39 24Z" stroke="#6B7280" stroke-width="2" stroke-linecap="round" stroke-linejoin="round"/>
</svg>
