<svg width="100" height="25" viewBox="0 0 100 25" fill="none" xmlns="http://www.w3.org/2000/svg">
<path d="M6.12 19.216C5.08 19.216 4.136 19.064 3.288 18.76C2.456 18.456 1.792 18.08 1.296 17.632C0.816 17.168 0.576 16.704 0.576 16.24C0.576 16.016 0.632 15.776 0.744 15.52C0.872 15.248 1.04 15.024 1.248 14.848C1.456 14.656 1.688 14.56 1.944 14.56C2.2 14.56 2.44 14.656 2.664 14.848C2.888 15.024 3.144 15.24 3.432 15.496C3.72 15.736 4.072 15.952 4.488 16.144C4.904 16.32 5.416 16.408 6.024 16.408C6.504 16.408 6.944 16.336 7.344 16.192C7.76 16.032 8.088 15.8 8.328 15.496C8.584 15.192 8.712 14.8 8.712 14.32C8.712 13.808 8.576 13.376 8.304 13.024C8.032 12.672 7.664 12.368 7.2 12.112C6.736 11.856 6.232 11.608 5.688 11.368C5.144 11.128 4.592 10.872 4.032 10.6C3.488 10.328 2.984 10 2.52 9.616C2.072 9.232 1.704 8.76 1.416 8.2C1.144 7.64 1.008 6.952 1.008 6.136C1.008 5.24 1.176 4.488 1.512 3.88C1.864 3.272 2.32 2.784 2.88 2.416C3.456 2.032 4.088 1.76 4.776 1.6C5.464 1.424 6.152 1.336 6.84 1.336C7.208 1.336 7.64 1.368 8.136 1.432C8.648 1.48 9.152 1.576 9.648 1.72C10.16 1.864 10.576 2.064 10.896 2.32C11.232 2.56 11.4 2.88 11.4 3.28C11.4 3.456 11.352 3.672 11.256 3.928C11.176 4.184 11.04 4.416 10.848 4.624C10.672 4.832 10.44 4.936 10.152 4.936C9.896 4.936 9.64 4.864 9.384 4.72C9.144 4.56 8.824 4.408 8.424 4.264C8.04 4.104 7.512 4.024 6.84 4.024C6.28 4.024 5.792 4.096 5.376 4.24C4.96 4.384 4.648 4.592 4.44 4.864C4.232 5.12 4.128 5.448 4.128 5.848C4.128 6.264 4.264 6.616 4.536 6.904C4.824 7.192 5.192 7.448 5.64 7.672C6.104 7.896 6.608 8.12 7.152 8.344C7.696 8.568 8.24 8.832 8.784 9.136C9.344 9.424 9.856 9.776 10.32 10.192C10.784 10.608 11.152 11.128 11.424 11.752C11.696 12.36 11.832 13.112 11.832 14.008C11.832 15.144 11.584 16.104 11.088 16.888C10.592 17.656 9.912 18.24 9.048 18.64C8.2 19.024 7.224 19.216 6.12 19.216ZM16.1871 19.216C15.3391 19.216 14.6031 18.96 13.9791 18.448C13.3711 17.92 13.0671 17.112 13.0671 16.024C13.0671 15.112 13.2991 14.4 13.7631 13.888C14.2431 13.376 14.8991 13.016 15.7311 12.808C16.5791 12.6 17.5551 12.496 18.6591 12.496H19.6431V12.184C19.6431 11.832 19.5711 11.488 19.4271 11.152C19.2991 10.816 19.0831 10.536 18.7791 10.312C18.4911 10.088 18.0751 9.976 17.5311 9.976C16.9231 9.976 16.4511 10.04 16.1151 10.168C15.7951 10.28 15.5471 10.4 15.3711 10.528C15.1951 10.656 15.0031 10.72 14.7951 10.72C14.4591 10.72 14.1951 10.552 14.0031 10.216C13.8271 9.88 13.7391 9.536 13.7391 9.184C13.7391 8.848 13.9391 8.552 14.3391 8.296C14.7551 8.024 15.2591 7.816 15.8511 7.672C16.4431 7.528 17.0191 7.456 17.5791 7.456C18.8271 7.456 19.8271 7.68 20.5791 8.128C21.3311 8.576 21.8751 9.152 22.2111 9.856C22.5631 10.56 22.7391 11.32 22.7391 12.136V17.992C22.7391 18.28 22.5951 18.52 22.3071 18.712C22.0191 18.904 21.6591 19 21.2271 19C20.8271 19 20.4911 18.904 20.2191 18.712C19.9631 18.52 19.8351 18.28 19.8351 17.992V17.32C19.4031 17.816 18.8911 18.256 18.2991 18.64C17.7231 19.024 17.0191 19.216 16.1871 19.216ZM17.4351 16.912C17.7711 16.912 18.1071 16.8 18.4431 16.576C18.7791 16.352 19.0591 16.064 19.2831 15.712C19.5231 15.36 19.6431 14.992 19.6431 14.608V14.104H19.2831C18.7551 14.104 18.2511 14.136 17.7711 14.2C17.2911 14.264 16.8991 14.408 16.5951 14.632C16.3071 14.84 16.1631 15.168 16.1631 15.616C16.1631 16.064 16.2831 16.392 16.5231 16.6C16.7791 16.808 17.0831 16.912 17.4351 16.912ZM26.5719 24.304C26.1399 24.304 25.7799 24.2 25.4919 23.992C25.2039 23.784 25.0599 23.56 25.0599 23.32V8.56C25.0599 8.272 25.2039 8.04 25.4919 7.864C25.7799 7.688 26.1319 7.6 26.5479 7.6C26.9639 7.6 27.2999 7.688 27.5559 7.864C27.8279 8.04 27.9639 8.272 27.9639 8.56V9.28C28.2359 8.816 28.6519 8.4 29.2119 8.032C29.7719 7.648 30.4359 7.456 31.2039 7.456C32.0199 7.456 32.7479 7.68 33.3879 8.128C34.0439 8.56 34.5559 9.144 34.9239 9.88C35.3079 10.616 35.4999 11.432 35.4999 12.328V14.296C35.4999 15.144 35.3079 15.944 34.9239 16.696C34.5399 17.448 34.0279 18.056 33.3879 18.52C32.7639 18.984 32.0679 19.216 31.2999 19.216C30.5959 19.216 29.9559 19.024 29.3799 18.64C28.8039 18.256 28.3959 17.816 28.1559 17.32V23.32C28.1559 23.56 28.0039 23.784 27.6999 23.992C27.3959 24.2 27.0199 24.304 26.5719 24.304ZM30.2919 16.504C30.6759 16.504 31.0199 16.4 31.3239 16.192C31.6439 15.968 31.8999 15.688 32.0919 15.352C32.2999 15.016 32.4039 14.664 32.4039 14.296V12.328C32.4039 11.96 32.3079 11.616 32.1159 11.296C31.9239 10.976 31.6599 10.712 31.3239 10.504C31.0039 10.28 30.6439 10.168 30.2439 10.168C29.8919 10.168 29.5559 10.256 29.2359 10.432C28.9319 10.608 28.6759 10.856 28.4679 11.176C28.2599 11.496 28.1559 11.88 28.1559 12.328V14.728C28.1559 14.888 28.2439 15.112 28.4199 15.4C28.6119 15.672 28.8679 15.928 29.1879 16.168C29.5079 16.392 29.8759 16.504 30.2919 16.504ZM39.0173 5.056C38.5533 5.056 38.1533 4.904 37.8173 4.6C37.4813 4.28 37.3133 3.928 37.3133 3.544C37.3133 3.128 37.4813 2.776 37.8173 2.488C38.1533 2.184 38.5533 2.032 39.0173 2.032C39.4973 2.032 39.8973 2.184 40.2173 2.488C40.5373 2.776 40.6973 3.128 40.6973 3.544C40.6973 3.928 40.5373 4.28 40.2173 4.6C39.8973 4.904 39.4973 5.056 39.0173 5.056ZM39.0173 19C38.5693 19 38.2013 18.896 37.9133 18.688C37.6253 18.48 37.4813 18.248 37.4813 17.992V8.56C37.4813 8.272 37.6253 8.04 37.9133 7.864C38.2013 7.688 38.5693 7.6 39.0173 7.6C39.4493 7.6 39.8173 7.688 40.1213 7.864C40.4253 8.04 40.5773 8.272 40.5773 8.56V17.992C40.5773 18.248 40.4253 18.48 40.1213 18.688C39.8173 18.896 39.4493 19 39.0173 19ZM47.6942 19.216C46.7662 19.216 45.9102 18.992 45.1262 18.544C44.3422 18.08 43.7102 17.472 43.2302 16.72C42.7502 15.968 42.5102 15.16 42.5102 14.296V12.328C42.5102 11.464 42.7422 10.664 43.2062 9.928C43.6702 9.176 44.2942 8.576 45.0782 8.128C45.8782 7.68 46.7502 7.456 47.6942 7.456C48.6382 7.456 49.5022 7.68 50.2862 8.128C51.0862 8.56 51.7182 9.144 52.1822 9.88C52.6622 10.616 52.9022 11.432 52.9022 12.328V14.296C52.9022 15.144 52.6622 15.944 52.1822 16.696C51.7022 17.448 51.0622 18.056 50.2622 18.52C49.4782 18.984 48.6222 19.216 47.6942 19.216ZM47.6942 16.504C48.0782 16.504 48.4302 16.4 48.7502 16.192C49.0702 15.984 49.3262 15.712 49.5182 15.376C49.7102 15.024 49.8062 14.664 49.8062 14.296V12.328C49.8062 11.96 49.7102 11.616 49.5182 11.296C49.3262 10.976 49.0702 10.712 48.7502 10.504C48.4462 10.28 48.0942 10.168 47.6942 10.168C47.3102 10.168 46.9582 10.272 46.6382 10.48C46.3182 10.688 46.0622 10.96 45.8702 11.296C45.6942 11.616 45.6062 11.96 45.6062 12.328V14.296C45.6062 14.664 45.6942 15.024 45.8702 15.376C46.0622 15.712 46.3182 15.984 46.6382 16.192C46.9582 16.4 47.3102 16.504 47.6942 16.504ZM56.6239 19C56.1759 19 55.8079 18.896 55.5199 18.688C55.2319 18.48 55.0879 18.248 55.0879 17.992V1.912C55.0879 1.624 55.2319 1.392 55.5199 1.216C55.8079 1.04 56.1759 0.951999 56.6239 0.951999C57.0559 0.951999 57.4239 1.04 57.7279 1.216C58.0319 1.392 58.1839 1.624 58.1839 1.912V17.992C58.1839 18.248 58.0319 18.48 57.7279 18.688C57.4239 18.896 57.0559 19 56.6239 19ZM65.5536 19.216C64.6256 19.216 63.7696 18.992 62.9856 18.544C62.2016 18.08 61.5696 17.472 61.0896 16.72C60.6096 15.968 60.3696 15.16 60.3696 14.296V12.328C60.3696 11.464 60.6016 10.664 61.0656 9.928C61.5296 9.176 62.1536 8.576 62.9376 8.128C63.7376 7.68 64.6096 7.456 65.5536 7.456C66.4976 7.456 67.3616 7.68 68.1456 8.128C68.9456 8.56 69.5776 9.144 70.0416 9.88C70.5216 10.616 70.7616 11.432 70.7616 12.328V14.296C70.7616 15.144 70.5216 15.944 70.0416 16.696C69.5616 17.448 68.9216 18.056 68.1216 18.52C67.3376 18.984 66.4816 19.216 65.5536 19.216ZM65.5536 16.504C65.9376 16.504 66.2896 16.4 66.6096 16.192C66.9296 15.984 67.1856 15.712 67.3776 15.376C67.5696 15.024 67.6656 14.664 67.6656 14.296V12.328C67.6656 11.96 67.5696 11.616 67.3776 11.296C67.1856 10.976 66.9296 10.712 66.6096 10.504C66.3056 10.28 65.9536 10.168 65.5536 10.168C65.1696 10.168 64.8176 10.272 64.4976 10.48C64.1776 10.688 63.9216 10.96 63.7296 11.296C63.5536 11.616 63.4656 11.96 63.4656 12.328V14.296C63.4656 14.664 63.5536 15.024 63.7296 15.376C63.9216 15.712 64.1776 15.984 64.4976 16.192C64.8176 16.4 65.1696 16.504 65.5536 16.504ZM77.2193 24.304C76.2753 24.304 75.3953 24.168 74.5793 23.896C73.7793 23.64 73.1313 23.256 72.6353 22.744C72.1553 22.232 71.9153 21.624 71.9153 20.92C71.9153 20.312 72.0833 19.792 72.4193 19.36C72.7553 18.944 73.1713 18.616 73.6673 18.376C73.3633 18.232 73.1153 18.04 72.9233 17.8C72.7473 17.544 72.6593 17.224 72.6593 16.84C72.6593 16.392 72.7713 16.032 72.9953 15.76C73.2353 15.472 73.5313 15.208 73.8833 14.968C73.4033 14.6 73.0273 14.16 72.7553 13.648C72.4993 13.12 72.3713 12.544 72.3713 11.92V11.416C72.3713 10.632 72.5633 9.944 72.9473 9.352C73.3473 8.76 73.8993 8.296 74.6033 7.96C75.3233 7.624 76.1473 7.456 77.0753 7.456C77.6033 7.456 78.0993 7.52 78.5633 7.648C79.0273 7.76 79.4433 7.928 79.8113 8.152C80.0833 7.512 80.3393 7.08 80.5793 6.856C80.8193 6.632 81.0513 6.52 81.2753 6.52C81.6593 6.52 81.9553 6.632 82.1633 6.856C82.3873 7.08 82.4993 7.288 82.4993 7.48C82.4993 7.624 82.4593 7.752 82.3793 7.864C82.3153 7.976 82.2273 8.072 82.1153 8.152C81.9553 8.248 81.7713 8.368 81.5633 8.512C81.3553 8.64 81.1633 8.824 80.9873 9.064C81.2753 9.384 81.4833 9.744 81.6113 10.144C81.7553 10.528 81.8273 10.952 81.8273 11.416V11.92C81.8273 12.688 81.6273 13.376 81.2273 13.984C80.8273 14.576 80.2673 15.048 79.5473 15.4C78.8273 15.752 78.0033 15.928 77.0753 15.928C76.4993 15.928 75.9793 15.856 75.5153 15.712C75.4353 15.776 75.3633 15.848 75.2993 15.928C75.2513 16.008 75.2273 16.096 75.2273 16.192C75.2273 16.464 75.4033 16.656 75.7553 16.768C76.1073 16.88 76.5553 16.968 77.0993 17.032C77.6433 17.096 78.2193 17.184 78.8273 17.296C79.4513 17.392 80.0353 17.552 80.5793 17.776C81.1233 18 81.5713 18.336 81.9233 18.784C82.2753 19.216 82.4513 19.8 82.4513 20.536C82.4513 21.432 82.1953 22.152 81.6833 22.696C81.1873 23.256 80.5393 23.664 79.7393 23.92C78.9553 24.176 78.1153 24.304 77.2193 24.304ZM77.1713 22.312C77.7953 22.312 78.3233 22.16 78.7553 21.856C79.2033 21.552 79.4273 21.144 79.4273 20.632C79.4273 20.296 79.3313 20.024 79.1393 19.816C78.9473 19.608 78.6833 19.448 78.3473 19.336C78.0273 19.24 77.6753 19.16 77.2913 19.096C76.9073 19.048 76.5233 19 76.1393 18.952C75.7553 19.128 75.4433 19.352 75.2033 19.624C74.9633 19.896 74.8433 20.224 74.8433 20.608C74.8433 21.136 75.0673 21.552 75.5153 21.856C75.9793 22.16 76.5313 22.312 77.1713 22.312ZM77.1233 14.056C77.6513 14.056 78.0673 13.856 78.3713 13.456C78.6753 13.056 78.8273 12.544 78.8273 11.92V11.416C78.8273 10.824 78.6753 10.328 78.3713 9.928C78.0833 9.528 77.6593 9.328 77.0993 9.328C76.5553 9.328 76.1313 9.528 75.8273 9.928C75.5393 10.328 75.3953 10.824 75.3953 11.416V11.896C75.3953 12.504 75.5393 13.016 75.8273 13.432C76.1313 13.848 76.5633 14.056 77.1233 14.056ZM85.5641 5.056C85.1001 5.056 84.7001 4.904 84.3641 4.6C84.0281 4.28 83.8601 3.928 83.8601 3.544C83.8601 3.128 84.0281 2.776 84.3641 2.488C84.7001 2.184 85.1001 2.032 85.5641 2.032C86.0441 2.032 86.4441 2.184 86.7641 2.488C87.0841 2.776 87.2441 3.128 87.2441 3.544C87.2441 3.928 87.0841 4.28 86.7641 4.6C86.4441 4.904 86.0441 5.056 85.5641 5.056ZM85.5641 19C85.1161 19 84.7481 18.896 84.4601 18.688C84.1721 18.48 84.0281 18.248 84.0281 17.992V8.56C84.0281 8.272 84.1721 8.04 84.4601 7.864C84.7481 7.688 85.1161 7.6 85.5641 7.6C85.9961 7.6 86.3641 7.688 86.6681 7.864C86.9721 8.04 87.1241 8.272 87.1241 8.56V17.992C87.1241 18.248 86.9721 18.48 86.6681 18.688C86.3641 18.896 85.9961 19 85.5641 19ZM94.8651 19.216C93.7291 19.216 92.7211 19.016 91.8411 18.616C90.9771 18.2 90.2971 17.624 89.8011 16.888C89.3051 16.136 89.0571 15.272 89.0571 14.296V12.256C89.0571 11.392 89.2891 10.6 89.7531 9.88C90.2331 9.144 90.8651 8.56 91.6491 8.128C92.4491 7.68 93.3371 7.456 94.3131 7.456C95.2091 7.456 96.0251 7.648 96.7611 8.032C97.5131 8.416 98.1211 8.944 98.5851 9.616C99.0491 10.288 99.2811 11.072 99.2811 11.968C99.2811 12.656 99.1691 13.152 98.9451 13.456C98.7211 13.744 98.4331 13.928 98.0811 14.008C97.7451 14.072 97.3931 14.104 97.0251 14.104H92.1531V14.464C92.1531 15.152 92.4091 15.712 92.9211 16.144C93.4491 16.56 94.1291 16.768 94.9611 16.768C95.4891 16.768 95.9291 16.688 96.2811 16.528C96.6331 16.368 96.9371 16.216 97.1931 16.072C97.4491 15.928 97.6891 15.856 97.9131 15.856C98.1531 15.856 98.3611 15.936 98.5371 16.096C98.7131 16.256 98.8491 16.448 98.9451 16.672C99.0411 16.88 99.0891 17.064 99.0891 17.224C99.0891 17.496 98.9131 17.792 98.5611 18.112C98.2251 18.416 97.7371 18.68 97.0971 18.904C96.4731 19.112 95.7291 19.216 94.8651 19.216ZM92.1531 12.28H95.6571C95.9291 12.28 96.1131 12.24 96.2091 12.16C96.3211 12.064 96.3771 11.888 96.3771 11.632C96.3771 11.264 96.2731 10.936 96.0651 10.648C95.8731 10.36 95.6171 10.136 95.2971 9.976C94.9931 9.816 94.6491 9.736 94.2651 9.736C93.8971 9.736 93.5531 9.816 93.2331 9.976C92.9131 10.12 92.6491 10.336 92.4411 10.624C92.2491 10.896 92.1531 11.224 92.1531 11.608V12.28Z" fill="#111928"/>
</svg>
